# xmcd CD database file
#
# Track frame offsets:
#	150
#	19855
#	41587
#	60727
#	83790
#	109190
#	131595
#	154290
#	177582
#	200102
#	220822
#
# Disc length: 3250 seconds
#
# Revision: 0
# Processed by: cddbd v1.5.1PL0 Copyright (c) Steve Scherf et al.
# Submitted via: CDex 1.51
#
DISCID=a00cb00b
DTITLE=Grover Washington, Jr. - Jazz Moods: Cool
DYEAR=1900
DGENRE=Jazz
TTITLE0=Strawberry Moon
TTITLE1=Love Like This
TTITLE2=Soulful Strut
TTITLE3=Caught A Touch Of Your Love
TTITLE4=Sacred Kind Of Love
TTITLE5=Take Five (Take Another Five)
TTITLE6=Time Out Of Mind
TTITLE7=I Can Count The Times
TTITLE8=Play That Groove For Me
TTITLE9=The Look Of Love
TTITLE10=Next Exit
EXTD=
EXTT0=
EXTT1=
EXTT2=
EXTT3=
EXTT4=
EXTT5=
EXTT6=
EXTT7=
EXTT8=
EXTT9=
EXTT10=
PLAYORDER=
